<svg width="900" height="1200" viewBox="0 0 900 1200" fill="none" xmlns="http://www.w3.org/2000/svg">
  <defs>
    <linearGradient id="bgGradient" x1="0" y1="0" x2="0" y2="1">
      <stop offset="0%" stop-color="#021126" />
      <stop offset="55%" stop-color="#041d3a" />
      <stop offset="100%" stop-color="#05264f" />
    </linearGradient>
    <radialGradient id="globalGlow" cx="0" cy="0" r="1" gradientUnits="userSpaceOnUse" gradientTransform="translate(450 520) scale(520 420)">
      <stop offset="0%" stop-color="#0b284f" stop-opacity="0.8" />
      <stop offset="100%" stop-color="#0b284f" stop-opacity="0" />
    </radialGradient>
    <radialGradient id="horizon" cx="0" cy="0" r="1" gradientUnits="userSpaceOnUse" gradientTransform="translate(452 810) scale(480 260)">
      <stop offset="0%" stop-color="#0d2f5c" stop-opacity="0.75" />
      <stop offset="100%" stop-color="#0d2f5c" stop-opacity="0" />
    </radialGradient>
    <filter id="glow" x="-20%" y="-20%" width="140%" height="140%" color-interpolation-filters="sRGB">
      <feGaussianBlur stdDeviation="6" result="blur" />
      <feMerge>
        <feMergeNode in="blur" />
        <feMergeNode in="SourceGraphic" />
      </feMerge>
    </filter>
  </defs>

  <rect width="900" height="1200" fill="url(#bgGradient)" />
  <rect width="900" height="1200" fill="url(#globalGlow)" />
  <rect width="900" height="1200" fill="url(#horizon)" />

  <g opacity="0.25" stroke="#8fb7ff" stroke-width="1.5">
    <path d="M-40 320C170 260 380 230 600 260C720 276 820 304 940 350" />
    <path d="M-60 520C130 470 360 452 560 476C690 491 840 532 960 600" />
    <path d="M-80 700C120 660 320 650 520 680C700 707 860 772 1000 870" />
  </g>

  <g stroke="#FFD166" stroke-width="3" stroke-linecap="round" stroke-linejoin="round" filter="url(#glow)">
    <path d="M20 360C220 300 420 280 620 310C720 325 810 356 900 402" opacity="0.75" />
    <path d="M-10 560C200 500 410 492 620 522C760 541 890 584 940 612" opacity="0.9" />
    <path d="M-30 760C160 720 360 710 570 742C720 765 840 808 930 868" opacity="0.8" />
  </g>

  <g fill="#FFD166" filter="url(#glow)">
    <circle cx="140" cy="350" r="7" />
    <circle cx="310" cy="320" r="6" />
    <circle cx="520" cy="335" r="8" />
    <circle cx="760" cy="380" r="7" />

    <circle cx="110" cy="555" r="6" />
    <circle cx="320" cy="530" r="8" />
    <circle cx="540" cy="545" r="7" />
    <circle cx="720" cy="565" r="6" />
    <circle cx="860" cy="610" r="7" />

    <circle cx="150" cy="760" r="7" />
    <circle cx="340" cy="735" r="6" />
    <circle cx="540" cy="750" r="8" />
    <circle cx="720" cy="790" r="7" />
    <circle cx="860" cy="840" r="6" />
  </g>

  <g stroke="#FFD166" stroke-width="1.5" stroke-linecap="round" opacity="0.65">
    <path d="M140 350L320 530L540 545L720 565L860 610" />
    <path d="M310 320L520 335L720 380" />
    <path d="M150 760L340 735L540 750L720 790L860 840" />
    <path d="M110 555L320 530" />
  </g>

  <g fill="#FFD166" opacity="0.85">
    <circle cx="140" cy="350" r="3" />
    <circle cx="320" cy="530" r="3" />
    <circle cx="540" cy="545" r="3" />
    <circle cx="720" cy="565" r="3" />
    <circle cx="860" cy="610" r="3" />
  </g>

  <g opacity="0.18" fill="#ffffff">
    <circle cx="180" cy="250" r="2.2" />
    <circle cx="410" cy="210" r="2.5" />
    <circle cx="640" cy="250" r="2.8" />
    <circle cx="780" cy="470" r="2.1" />
    <circle cx="620" cy="690" r="2.4" />
    <circle cx="420" cy="910" r="2.1" />
    <circle cx="210" cy="840" r="2.3" />
    <circle cx="710" cy="930" r="2" />
  </g>

  <path d="M0 1030C120 950 280 900 450 900C620 900 780 950 900 1030V1200H0V1030Z" fill="rgba(7,27,55,0.85)" />
  <path d="M0 1090C160 1005 300 980 450 980C600 980 740 1005 900 1090V1200H0V1090Z" fill="rgba(3,13,29,0.95)" />
</svg>
